# xmcd
#
# Track frame offsets:
#	150
#	15055
#	30605
#	44718
#	60698
#	72953
#	87675
#	103152
#	118203
#	129046
#	140993
#	154495
#	169822
#	188217
#	202345
#	213302
#	228814
#	241352
#	253763
#	267616
#
# Disc length: 3763 seconds
#
# Revision: 1
# Processed by: cddbd v1.4PL0 Copyright (c) Steve Scherf et al.
# Submitted via: audiograbber 1.80
#
DISCID=340eb114
DTITLE=Dolly Parton - Queen of Country [CD1)
DYEAR=1900
DGENRE=
TTITLE0=You 're the only one
TTITLE1=Applejack
TTITLE2=I will always love you
TTITLE3=Heartbreaker
TTITLE4=Jolene
TTITLE5=Don't call it love
TTITLE6=We'll sing in the sunshine
TTITLE7=But you know i love you
TTITLE8=Love is like a butterfly
TTITLE9=Baby i'm burning
TTITLE10=Here you come again
TTITLE11=Nickels and dimes
TTITLE12=Do i ever cross your mind
TTITLE13=Coat of many colors
TTITLE14=All i can do
TTITLE15=Think about love
TTITLE16=9 to 5
TTITLE17=The bargain store
TTITLE18=Two doors down
TTITLE19=Working Girl
EXTD=
EXTT0=
EXTT1=
EXTT2=
EXTT3=
EXTT4=
EXTT5=
EXTT6=
EXTT7=
EXTT8=
EXTT9=
EXTT10=
EXTT11=
EXTT12=
EXTT13=
EXTT14=
EXTT15=
EXTT16=
EXTT17=
EXTT18=
EXTT19=
PLAYORDER=
